# Tiled2Unity generated file. Do not modify by hand.
# Wavefront file for 'Test_mesh_0002.obj'

# Vertices (Count = 1064)
v -21 -1 0
v -22 -1 0
v -22 0 0
v -21 0 0
v -17 -1 0
v -18 -1 0
v -18 0 0
v -17 0 0
v -13 -1 0
v -14 -1 0
v -14 0 0
v -13 0 0
v -12 -1 0
v -13 -1 0
v -13 0 0
v -12 0 0
v -11 -1 0
v -12 -1 0
v -12 0 0
v -11 0 0
v -7 -1 0
v -8 -1 0
v -8 0 0
v -7 0 0
v -4 -1 0
v -5 -1 0
v -5 0 0
v -4 0 0
v -21 -2 0
v -22 -2 0
v -22 -1 0
v -21 -1 0
v -17 -2 0
v -18 -2 0
v -18 -1 0
v -17 -1 0
v -13 -2 0
v -14 -2 0
v -14 -1 0
v -13 -1 0
v -12 -2 0
v -13 -2 0
v -13 -1 0
v -12 -1 0
v -11 -2 0
v -12 -2 0
v -12 -1 0
v -11 -1 0
v -7 -2 0
v -8 -2 0
v -8 -1 0
v -7 -1 0
v -4 -2 0
v -5 -2 0
v -5 -1 0
v -4 -1 0
v -19 -3 0
v -20 -3 0
v -20 -2 0
v -19 -2 0
v -18 -3 0
v -19 -3 0
v -19 -2 0
v -18 -2 0
v -17 -3 0
v -18 -3 0
v -18 -2 0
v -17 -2 0
v -14 -3 0
v -15 -3 0
v -15 -2 0
v -14 -2 0
v -13 -3 0
v -14 -3 0
v -14 -2 0
v -13 -2 0
v -12 -3 0
v -13 -3 0
v -13 -2 0
v -12 -2 0
v -11 -3 0
v -12 -3 0
v -12 -2 0
v -11 -2 0
v -22 -4 0
v -23 -4 0
v -23 -3 0
v -22 -3 0
v -21 -4 0
v -22 -4 0
v -22 -3 0
v -21 -3 0
v -20 -4 0
v -21 -4 0
v -21 -3 0
v -20 -3 0
v -19 -4 0
v -20 -4 0
v -20 -3 0
v -19 -3 0
v -18 -4 0
v -19 -4 0
v -19 -3 0
v -18 -3 0
v -17 -4 0
v -18 -4 0
v -18 -3 0
v -17 -3 0
v -16 -4 0
v -17 -4 0
v -17 -3 0
v -16 -3 0
v -15 -4 0
v -16 -4 0
v -16 -3 0
v -15 -3 0
v -14 -4 0
v -15 -4 0
v -15 -3 0
v -14 -3 0
v -13 -4 0
v -14 -4 0
v -14 -3 0
v -13 -3 0
v -12 -4 0
v -13 -4 0
v -13 -3 0
v -12 -3 0
v -11 -4 0
v -12 -4 0
v -12 -3 0
v -11 -3 0
v -22 -5 0
v -23 -5 0
v -23 -4 0
v -22 -4 0
v -21 -5 0
v -22 -5 0
v -22 -4 0
v -21 -4 0
v -20 -5 0
v -21 -5 0
v -21 -4 0
v -20 -4 0
v -19 -5 0
v -20 -5 0
v -20 -4 0
v -19 -4 0
v -18 -5 0
v -19 -5 0
v -19 -4 0
v -18 -4 0
v -17 -5 0
v -18 -5 0
v -18 -4 0
v -17 -4 0
v -16 -5 0
v -17 -5 0
v -17 -4 0
v -16 -4 0
v -15 -5 0
v -16 -5 0
v -16 -4 0
v -15 -4 0
v -14 -5 0
v -15 -5 0
v -15 -4 0
v -14 -4 0
v -13 -5 0
v -14 -5 0
v -14 -4 0
v -13 -4 0
v -12 -5 0
v -13 -5 0
v -13 -4 0
v -12 -4 0
v -11 -5 0
v -12 -5 0
v -12 -4 0
v -11 -4 0
v -22 -6 0
v -23 -6 0
v -23 -5 0
v -22 -5 0
v -21 -6 0
v -22 -6 0
v -22 -5 0
v -21 -5 0
v -20 -6 0
v -21 -6 0
v -21 -5 0
v -20 -5 0
v -19 -6 0
v -20 -6 0
v -20 -5 0
v -19 -5 0
v -18 -6 0
v -19 -6 0
v -19 -5 0
v -18 -5 0
v -17 -6 0
v -18 -6 0
v -18 -5 0
v -17 -5 0
v -16 -6 0
v -17 -6 0
v -17 -5 0
v -16 -5 0
v -15 -6 0
v -16 -6 0
v -16 -5 0
v -15 -5 0
v -14 -6 0
v -15 -6 0
v -15 -5 0
v -14 -5 0
v -13 -6 0
v -14 -6 0
v -14 -5 0
v -13 -5 0
v -12 -6 0
v -13 -6 0
v -13 -5 0
v -12 -5 0
v -11 -6 0
v -12 -6 0
v -12 -5 0
v -11 -5 0
v -23 -7 0
v -24 -7 0
v -24 -6 0
v -23 -6 0
v -22 -7 0
v -23 -7 0
v -23 -6 0
v -22 -6 0
v -21 -7 0
v -22 -7 0
v -22 -6 0
v -21 -6 0
v -20 -7 0
v -21 -7 0
v -21 -6 0
v -20 -6 0
v -18 -7 0
v -19 -7 0
v -19 -6 0
v -18 -6 0
v -17 -7 0
v -18 -7 0
v -18 -6 0
v -17 -6 0
v -16 -7 0
v -17 -7 0
v -17 -6 0
v -16 -6 0
v -15 -7 0
v -16 -7 0
v -16 -6 0
v -15 -6 0
v -14 -7 0
v -15 -7 0
v -15 -6 0
v -14 -6 0
v -13 -7 0
v -14 -7 0
v -14 -6 0
v -13 -6 0
v -12 -7 0
v -13 -7 0
v -13 -6 0
v -12 -6 0
v -11 -7 0
v -12 -7 0
v -12 -6 0
v -11 -6 0
v -24 -8 0
v -25 -8 0
v -25 -7 0
v -24 -7 0
v -23 -8 0
v -24 -8 0
v -24 -7 0
v -23 -7 0
v -22 -8 0
v -23 -8 0
v -23 -7 0
v -22 -7 0
v -21 -8 0
v -22 -8 0
v -22 -7 0
v -21 -7 0
v -20 -8 0
v -21 -8 0
v -21 -7 0
v -20 -7 0
v -19 -8 0
v -20 -8 0
v -20 -7 0
v -19 -7 0
v -18 -8 0
v -19 -8 0
v -19 -7 0
v -18 -7 0
v -17 -8 0
v -18 -8 0
v -18 -7 0
v -17 -7 0
v -16 -8 0
v -17 -8 0
v -17 -7 0
v -16 -7 0
v -15 -8 0
v -16 -8 0
v -16 -7 0
v -15 -7 0
v -14 -8 0
v -15 -8 0
v -15 -7 0
v -14 -7 0
v -13 -8 0
v -14 -8 0
v -14 -7 0
v -13 -7 0
v -12 -8 0
v -13 -8 0
v -13 -7 0
v -12 -7 0
v -6 -8 0
v -7 -8 0
v -7 -7 0
v -6 -7 0
v -24 -9 0
v -25 -9 0
v -25 -8 0
v -24 -8 0
v -23 -9 0
v -24 -9 0
v -24 -8 0
v -23 -8 0
v -22 -9 0
v -23 -9 0
v -23 -8 0
v -22 -8 0
v -21 -9 0
v -22 -9 0
v -22 -8 0
v -21 -8 0
v -20 -9 0
v -21 -9 0
v -21 -8 0
v -20 -8 0
v -19 -9 0
v -20 -9 0
v -20 -8 0
v -19 -8 0
v -18 -9 0
v -19 -9 0
v -19 -8 0
v -18 -8 0
v -17 -9 0
v -18 -9 0
v -18 -8 0
v -17 -8 0
v -16 -9 0
v -17 -9 0
v -17 -8 0
v -16 -8 0
v -15 -9 0
v -16 -9 0
v -16 -8 0
v -15 -8 0
v -14 -9 0
v -15 -9 0
v -15 -8 0
v -14 -8 0
v -13 -9 0
v -14 -9 0
v -14 -8 0
v -13 -8 0
v -24 -10 0
v -25 -10 0
v -25 -9 0
v -24 -9 0
v -22 -10 0
v -23 -10 0
v -23 -9 0
v -22 -9 0
v -21 -10 0
v -22 -10 0
v -22 -9 0
v -21 -9 0
v -20 -10 0
v -21 -10 0
v -21 -9 0
v -20 -9 0
v -19 -10 0
v -20 -10 0
v -20 -9 0
v -19 -9 0
v -18 -10 0
v -19 -10 0
v -19 -9 0
v -18 -9 0
v -17 -10 0
v -18 -10 0
v -18 -9 0
v -17 -9 0
v -16 -10 0
v -17 -10 0
v -17 -9 0
v -16 -9 0
v -15 -10 0
v -16 -10 0
v -16 -9 0
v -15 -9 0
v -14 -10 0
v -15 -10 0
v -15 -9 0
v -14 -9 0
v -24 -11 0
v -25 -11 0
v -25 -10 0
v -24 -10 0
v -22 -11 0
v -23 -11 0
v -23 -10 0
v -22 -10 0
v -21 -11 0
v -22 -11 0
v -22 -10 0
v -21 -10 0
v -20 -11 0
v -21 -11 0
v -21 -10 0
v -20 -10 0
v -19 -11 0
v -20 -11 0
v -20 -10 0
v -19 -10 0
v -18 -11 0
v -19 -11 0
v -19 -10 0
v -18 -10 0
v -17 -11 0
v -18 -11 0
v -18 -10 0
v -17 -10 0
v -16 -11 0
v -17 -11 0
v -17 -10 0
v -16 -10 0
v -15 -11 0
v -16 -11 0
v -16 -10 0
v -15 -10 0
v -14 -11 0
v -15 -11 0
v -15 -10 0
v -14 -10 0
v -13 -11 0
v -14 -11 0
v -14 -10 0
v -13 -10 0
v -22 -12 0
v -23 -12 0
v -23 -11 0
v -22 -11 0
v -21 -12 0
v -22 -12 0
v -22 -11 0
v -21 -11 0
v -20 -12 0
v -21 -12 0
v -21 -11 0
v -20 -11 0
v -19 -12 0
v -20 -12 0
v -20 -11 0
v -19 -11 0
v -18 -12 0
v -19 -12 0
v -19 -11 0
v -18 -11 0
v -17 -12 0
v -18 -12 0
v -18 -11 0
v -17 -11 0
v -16 -12 0
v -17 -12 0
v -17 -11 0
v -16 -11 0
v -15 -12 0
v -16 -12 0
v -16 -11 0
v -15 -11 0
v -14 -12 0
v -15 -12 0
v -15 -11 0
v -14 -11 0
v -13 -12 0
v -14 -12 0
v -14 -11 0
v -13 -11 0
v -12 -12 0
v -13 -12 0
v -13 -11 0
v -12 -11 0
v -11 -12 0
v -12 -12 0
v -12 -11 0
v -11 -11 0
v -21 -13 0
v -22 -13 0
v -22 -12 0
v -21 -12 0
v -20 -13 0
v -21 -13 0
v -21 -12 0
v -20 -12 0
v -19 -13 0
v -20 -13 0
v -20 -12 0
v -19 -12 0
v -18 -13 0
v -19 -13 0
v -19 -12 0
v -18 -12 0
v -17 -13 0
v -18 -13 0
v -18 -12 0
v -17 -12 0
v -16 -13 0
v -17 -13 0
v -17 -12 0
v -16 -12 0
v -15 -13 0
v -16 -13 0
v -16 -12 0
v -15 -12 0
v -14 -13 0
v -15 -13 0
v -15 -12 0
v -14 -12 0
v -13 -13 0
v -14 -13 0
v -14 -12 0
v -13 -12 0
v -12 -13 0
v -13 -13 0
v -13 -12 0
v -12 -12 0
v -11 -13 0
v -12 -13 0
v -12 -12 0
v -11 -12 0
v -18 -14 0
v -19 -14 0
v -19 -13 0
v -18 -13 0
v -17 -14 0
v -18 -14 0
v -18 -13 0
v -17 -13 0
v -16 -14 0
v -17 -14 0
v -17 -13 0
v -16 -13 0
v -15 -14 0
v -16 -14 0
v -16 -13 0
v -15 -13 0
v -14 -14 0
v -15 -14 0
v -15 -13 0
v -14 -13 0
v -13 -14 0
v -14 -14 0
v -14 -13 0
v -13 -13 0
v -12 -14 0
v -13 -14 0
v -13 -13 0
v -12 -13 0
v -11 -14 0
v -12 -14 0
v -12 -13 0
v -11 -13 0
v -20 -15 0
v -21 -15 0
v -21 -14 0
v -20 -14 0
v -19 -15 0
v -20 -15 0
v -20 -14 0
v -19 -14 0
v -18 -15 0
v -19 -15 0
v -19 -14 0
v -18 -14 0
v -17 -15 0
v -18 -15 0
v -18 -14 0
v -17 -14 0
v -16 -15 0
v -17 -15 0
v -17 -14 0
v -16 -14 0
v -15 -15 0
v -16 -15 0
v -16 -14 0
v -15 -14 0
v -14 -15 0
v -15 -15 0
v -15 -14 0
v -14 -14 0
v -13 -15 0
v -14 -15 0
v -14 -14 0
v -13 -14 0
v -12 -15 0
v -13 -15 0
v -13 -14 0
v -12 -14 0
v -11 -15 0
v -12 -15 0
v -12 -14 0
v -11 -14 0
v -20 -16 0
v -21 -16 0
v -21 -15 0
v -20 -15 0
v -19 -16 0
v -20 -16 0
v -20 -15 0
v -19 -15 0
v -18 -16 0
v -19 -16 0
v -19 -15 0
v -18 -15 0
v -17 -16 0
v -18 -16 0
v -18 -15 0
v -17 -15 0
v -16 -16 0
v -17 -16 0
v -17 -15 0
v -16 -15 0
v -15 -16 0
v -16 -16 0
v -16 -15 0
v -15 -15 0
v -14 -16 0
v -15 -16 0
v -15 -15 0
v -14 -15 0
v -13 -16 0
v -14 -16 0
v -14 -15 0
v -13 -15 0
v -12 -16 0
v -13 -16 0
v -13 -15 0
v -12 -15 0
v -11 -16 0
v -12 -16 0
v -12 -15 0
v -11 -15 0
v -20 -17 0
v -21 -17 0
v -21 -16 0
v -20 -16 0
v -19 -17 0
v -20 -17 0
v -20 -16 0
v -19 -16 0
v -18 -17 0
v -19 -17 0
v -19 -16 0
v -18 -16 0
v -17 -17 0
v -18 -17 0
v -18 -16 0
v -17 -16 0
v -16 -17 0
v -17 -17 0
v -17 -16 0
v -16 -16 0
v -15 -17 0
v -16 -17 0
v -16 -16 0
v -15 -16 0
v -14 -17 0
v -15 -17 0
v -15 -16 0
v -14 -16 0
v -13 -17 0
v -14 -17 0
v -14 -16 0
v -13 -16 0
v -12 -17 0
v -13 -17 0
v -13 -16 0
v -12 -16 0
v -20 -18 0
v -21 -18 0
v -21 -17 0
v -20 -17 0
v -19 -18 0
v -20 -18 0
v -20 -17 0
v -19 -17 0
v -18 -18 0
v -19 -18 0
v -19 -17 0
v -18 -17 0
v -17 -18 0
v -18 -18 0
v -18 -17 0
v -17 -17 0
v -16 -18 0
v -17 -18 0
v -17 -17 0
v -16 -17 0
v -15 -18 0
v -16 -18 0
v -16 -17 0
v -15 -17 0
v -14 -18 0
v -15 -18 0
v -15 -17 0
v -14 -17 0
v -20 -19 0
v -21 -19 0
v -21 -18 0
v -20 -18 0
v -19 -19 0
v -20 -19 0
v -20 -18 0
v -19 -18 0
v -18 -19 0
v -19 -19 0
v -19 -18 0
v -18 -18 0
v -17 -19 0
v -18 -19 0
v -18 -18 0
v -17 -18 0
v -16 -19 0
v -17 -19 0
v -17 -18 0
v -16 -18 0
v -15 -19 0
v -16 -19 0
v -16 -18 0
v -15 -18 0
v -14 -19 0
v -15 -19 0
v -15 -18 0
v -14 -18 0
v -20 -20 0
v -21 -20 0
v -21 -19 0
v -20 -19 0
v -19 -20 0
v -20 -20 0
v -20 -19 0
v -19 -19 0
v -18 -20 0
v -19 -20 0
v -19 -19 0
v -18 -19 0
v -17 -20 0
v -18 -20 0
v -18 -19 0
v -17 -19 0
v -16 -20 0
v -17 -20 0
v -17 -19 0
v -16 -19 0
v -15 -20 0
v -16 -20 0
v -16 -19 0
v -15 -19 0
v -14 -20 0
v -15 -20 0
v -15 -19 0
v -14 -19 0
v -20 -21 0
v -21 -21 0
v -21 -20 0
v -20 -20 0
v -19 -21 0
v -20 -21 0
v -20 -20 0
v -19 -20 0
v -18 -21 0
v -19 -21 0
v -19 -20 0
v -18 -20 0
v -17 -21 0
v -18 -21 0
v -18 -20 0
v -17 -20 0
v -16 -21 0
v -17 -21 0
v -17 -20 0
v -16 -20 0
v -15 -21 0
v -16 -21 0
v -16 -20 0
v -15 -20 0
v -14 -21 0
v -15 -21 0
v -15 -20 0
v -14 -20 0
v 0 -21 0
v -1 -21 0
v -1 -20 0
v 0 -20 0
v -20 -22 0
v -21 -22 0
v -21 -21 0
v -20 -21 0
v -19 -22 0
v -20 -22 0
v -20 -21 0
v -19 -21 0
v -18 -22 0
v -19 -22 0
v -19 -21 0
v -18 -21 0
v -17 -22 0
v -18 -22 0
v -18 -21 0
v -17 -21 0
v -16 -22 0
v -17 -22 0
v -17 -21 0
v -16 -21 0
v 0 -22 0
v -1 -22 0
v -1 -21 0
v 0 -21 0
v -20 -23 0
v -21 -23 0
v -21 -22 0
v -20 -22 0
v -19 -23 0
v -20 -23 0
v -20 -22 0
v -19 -22 0
v -18 -23 0
v -19 -23 0
v -19 -22 0
v -18 -22 0
v -17 -23 0
v -18 -23 0
v -18 -22 0
v -17 -22 0
v 0 -23 0
v -1 -23 0
v -1 -22 0
v 0 -22 0
v -24 -24 0
v -25 -24 0
v -25 -23 0
v -24 -23 0
v -23 -24 0
v -24 -24 0
v -24 -23 0
v -23 -23 0
v -22 -24 0
v -23 -24 0
v -23 -23 0
v -22 -23 0
v -21 -24 0
v -22 -24 0
v -22 -23 0
v -21 -23 0
v -20 -24 0
v -21 -24 0
v -21 -23 0
v -20 -23 0
v -19 -24 0
v -20 -24 0
v -20 -23 0
v -19 -23 0
v -18 -24 0
v -19 -24 0
v -19 -23 0
v -18 -23 0
v -17 -24 0
v -18 -24 0
v -18 -23 0
v -17 -23 0
v -16 -24 0
v -17 -24 0
v -17 -23 0
v -16 -23 0
v -15 -24 0
v -16 -24 0
v -16 -23 0
v -15 -23 0
v -14 -24 0
v -15 -24 0
v -15 -23 0
v -14 -23 0
v -13 -24 0
v -14 -24 0
v -14 -23 0
v -13 -23 0
v -12 -24 0
v -13 -24 0
v -13 -23 0
v -12 -23 0
v -11 -24 0
v -12 -24 0
v -12 -23 0
v -11 -23 0
v -10 -24 0
v -11 -24 0
v -11 -23 0
v -10 -23 0
v -9 -24 0
v -10 -24 0
v -10 -23 0
v -9 -23 0
v -8 -24 0
v -9 -24 0
v -9 -23 0
v -8 -23 0
v -7 -24 0
v -8 -24 0
v -8 -23 0
v -7 -23 0
v -6 -24 0
v -7 -24 0
v -7 -23 0
v -6 -23 0
v -5 -24 0
v -6 -24 0
v -6 -23 0
v -5 -23 0
v -4 -24 0
v -5 -24 0
v -5 -23 0
v -4 -23 0
v -3 -24 0
v -4 -24 0
v -4 -23 0
v -3 -23 0
v -2 -24 0
v -3 -24 0
v -3 -23 0
v -2 -23 0
v -1 -24 0
v -2 -24 0
v -2 -23 0
v -1 -23 0
v 0 -24 0
v -1 -24 0
v -1 -23 0
v 0 -23 0
v -24 -25 0
v -25 -25 0
v -25 -24 0
v -24 -24 0
v -23 -25 0
v -24 -25 0
v -24 -24 0
v -23 -24 0
v -22 -25 0
v -23 -25 0
v -23 -24 0
v -22 -24 0
v -21 -25 0
v -22 -25 0
v -22 -24 0
v -21 -24 0
v -20 -25 0
v -21 -25 0
v -21 -24 0
v -20 -24 0
v -19 -25 0
v -20 -25 0
v -20 -24 0
v -19 -24 0
v -18 -25 0
v -19 -25 0
v -19 -24 0
v -18 -24 0
v -17 -25 0
v -18 -25 0
v -18 -24 0
v -17 -24 0
v -16 -25 0
v -17 -25 0
v -17 -24 0
v -16 -24 0
v -15 -25 0
v -16 -25 0
v -16 -24 0
v -15 -24 0
v -14 -25 0
v -15 -25 0
v -15 -24 0
v -14 -24 0
v -13 -25 0
v -14 -25 0
v -14 -24 0
v -13 -24 0
v -12 -25 0
v -13 -25 0
v -13 -24 0
v -12 -24 0
v -11 -25 0
v -12 -25 0
v -12 -24 0
v -11 -24 0
v -10 -25 0
v -11 -25 0
v -11 -24 0
v -10 -24 0
v -9 -25 0
v -10 -25 0
v -10 -24 0
v -9 -24 0
v -8 -25 0
v -9 -25 0
v -9 -24 0
v -8 -24 0
v -7 -25 0
v -8 -25 0
v -8 -24 0
v -7 -24 0
v -6 -25 0
v -7 -25 0
v -7 -24 0
v -6 -24 0
v -5 -25 0
v -6 -25 0
v -6 -24 0
v -5 -24 0
v -4 -25 0
v -5 -25 0
v -5 -24 0
v -4 -24 0
v -3 -25 0
v -4 -25 0
v -4 -24 0
v -3 -24 0
v -2 -25 0
v -3 -25 0
v -3 -24 0
v -2 -24 0
v -1 -25 0
v -2 -25 0
v -2 -24 0
v -1 -24 0
v 0 -25 0
v -1 -25 0
v -1 -24 0
v 0 -24 0

# Texture cooridinates (Count = 64)
vt 0.375 0.6875
vt 0.4375 0.6875
vt 0.4375 0.75
vt 0.375 0.75
vt 0.1875 0.5
vt 0.25 0.5
vt 0.25 0.5625
vt 0.1875 0.5625
vt 0.0625 0.5625
vt 0.125 0.5625
vt 0.125 0.625
vt 0.0625 0.625
vt 0 0.5625
vt 0 0.625
vt 0.375 0.625
vt 0.4375 0.625
vt 0.1875 0.625
vt 0.125 0.5
vt 0 0.5
vt 0.0625 0.5
vt 0.25 0.625
vt 0.125 0.4375
vt 0.1875 0.4375
vt 0.0625 0.4375
vt 0 0.4375
vt 0.125 0.875
vt 0.125 0.9375
vt 0.0625 0.9375
vt 0.0625 0.875
vt 0.875 0.25
vt 0.9375 0.25
vt 0.9375 0.3125
vt 0.875 0.3125
vt 0 0.9375
vt 0 0.875
vt 0.1875 0.875
vt 0.1875 0.9375
vt 0.6875 0.25
vt 0.75 0.25
vt 0.75 0.3125
vt 0.6875 0.3125
vt 0.625 0.25
vt 0.625 0.3125
vt 0.0625 0.375
vt 0.125 0.375
vt 0.6875 0.1875
vt 0.75 0.1875
vt 0.625 0.1875
vt 0.25 0.4375
vt 0.4375 0.25
vt 0.5 0.25
vt 0.5 0.3125
vt 0.4375 0.3125
vt 0.375 0.25
vt 0.375 0.3125
vt 0.4375 0.1875
vt 0.5 0.1875
vt 0.375 0.1875
vt 0.0625 0.3125
vt 0.125 0.3125
vt 0.0625 1
vt 0 1
vt 0.1875 1
vt 0.125 1

# Normal
vn 0 0 -1

# Mesh description
g Test_mesh_0002

# Faces
f 1/1/1 2/2/1 3/3/1 4/4/1
f 5/1/1 6/2/1 7/3/1 8/4/1
f 9/5/1 10/6/1 11/7/1 12/8/1
f 13/9/1 14/10/1 15/11/1 16/12/1
f 17/13/1 18/9/1 19/12/1 20/14/1
f 21/1/1 22/2/1 23/3/1 24/4/1
f 25/1/1 26/2/1 27/3/1 28/4/1
f 29/15/1 30/16/1 31/2/1 32/1/1
f 33/15/1 34/16/1 35/2/1 36/1/1
f 37/5/1 38/6/1 39/7/1 40/8/1
f 41/10/1 42/8/1 43/17/1 44/11/1
f 45/13/1 46/9/1 47/12/1 48/14/1
f 49/15/1 50/16/1 51/2/1 52/1/1
f 53/15/1 54/16/1 55/2/1 56/1/1
f 57/5/1 58/6/1 59/7/1 60/8/1
f 61/18/1 62/5/1 63/8/1 64/10/1
f 65/19/1 66/20/1 67/9/1 68/13/1
f 69/8/1 70/7/1 71/21/1 72/17/1
f 73/5/1 74/6/1 75/7/1 76/8/1
f 77/18/1 78/5/1 79/8/1 80/10/1
f 81/13/1 82/9/1 83/12/1 84/14/1
f 85/5/1 86/6/1 87/7/1 88/8/1
f 89/18/1 90/5/1 91/8/1 92/10/1
f 93/18/1 94/5/1 95/8/1 96/10/1
f 97/5/1 98/6/1 99/7/1 100/8/1
f 101/9/1 102/10/1 103/11/1 104/12/1
f 105/10/1 106/8/1 107/17/1 108/11/1
f 109/9/1 110/10/1 111/11/1 112/12/1
f 113/10/1 114/8/1 115/17/1 116/11/1
f 117/5/1 118/6/1 119/7/1 120/8/1
f 121/10/1 122/8/1 123/17/1 124/11/1
f 125/20/1 126/18/1 127/10/1 128/9/1
f 129/13/1 130/9/1 131/12/1 132/14/1
f 133/5/1 134/6/1 135/7/1 136/8/1
f 137/18/1 138/5/1 139/8/1 140/10/1
f 141/20/1 142/18/1 143/10/1 144/9/1
f 145/5/1 146/6/1 147/7/1 148/8/1
f 149/20/1 150/18/1 151/10/1 152/9/1
f 153/10/1 154/8/1 155/17/1 156/11/1
f 157/18/1 158/5/1 159/8/1 160/10/1
f 161/20/1 162/18/1 163/10/1 164/9/1
f 165/8/1 166/7/1 167/21/1 168/17/1
f 169/18/1 170/5/1 171/8/1 172/10/1
f 173/20/1 174/18/1 175/10/1 176/9/1
f 177/19/1 178/20/1 179/9/1 180/13/1
f 181/5/1 182/6/1 183/7/1 184/8/1
f 185/18/1 186/5/1 187/8/1 188/10/1
f 189/22/1 190/23/1 191/5/1 192/18/1
f 193/24/1 194/22/1 195/18/1 196/20/1
f 197/20/1 198/18/1 199/10/1 200/9/1
f 201/9/1 202/10/1 203/11/1 204/12/1
f 205/22/1 206/23/1 207/5/1 208/18/1
f 209/8/1 210/7/1 211/21/1 212/17/1
f 213/18/1 214/5/1 215/8/1 216/10/1
f 217/9/1 218/10/1 219/11/1 220/12/1
f 221/10/1 222/8/1 223/17/1 224/11/1
f 225/19/1 226/20/1 227/9/1 228/13/1
f 229/5/1 230/6/1 231/7/1 232/8/1
f 233/5/1 234/6/1 235/7/1 236/8/1
f 237/18/1 238/5/1 239/8/1 240/10/1
f 241/13/1 242/9/1 243/12/1 244/14/1
f 245/22/1 246/23/1 247/5/1 248/18/1
f 249/24/1 250/22/1 251/18/1 252/20/1
f 253/22/1 254/23/1 255/5/1 256/18/1
f 257/5/1 258/6/1 259/7/1 260/8/1
f 261/10/1 262/8/1 263/17/1 264/11/1
f 265/20/1 266/18/1 267/10/1 268/9/1
f 269/9/1 270/10/1 271/11/1 272/12/1
f 273/25/1 274/24/1 275/20/1 276/19/1
f 277/26/1 278/27/1 279/28/1 280/29/1
f 281/5/1 282/6/1 283/7/1 284/8/1
f 285/5/1 286/6/1 287/7/1 288/8/1
f 289/9/1 290/10/1 291/11/1 292/12/1
f 293/19/1 294/20/1 295/9/1 296/13/1
f 297/20/1 298/18/1 299/10/1 300/9/1
f 301/10/1 302/8/1 303/17/1 304/11/1
f 305/19/1 306/20/1 307/9/1 308/13/1
f 309/8/1 310/7/1 311/21/1 312/17/1
f 313/9/1 314/10/1 315/11/1 316/12/1
f 317/19/1 318/20/1 319/9/1 320/13/1
f 321/18/1 322/5/1 323/8/1 324/10/1
f 325/24/1 326/22/1 327/18/1 328/20/1
f 329/30/1 330/31/1 331/32/1 332/33/1
f 333/29/1 334/28/1 335/34/1 336/35/1
f 337/8/1 338/7/1 339/21/1 340/17/1
f 341/9/1 342/10/1 343/11/1 344/12/1
f 345/19/1 346/20/1 347/9/1 348/13/1
f 349/9/1 350/10/1 351/11/1 352/12/1
f 353/18/1 354/5/1 355/8/1 356/10/1
f 357/20/1 358/18/1 359/10/1 360/9/1
f 361/20/1 362/18/1 363/10/1 364/9/1
f 365/18/1 366/5/1 367/8/1 368/10/1
f 369/10/1 370/8/1 371/17/1 372/11/1
f 373/13/1 374/9/1 375/12/1 376/14/1
f 377/22/1 378/23/1 379/5/1 380/18/1
f 381/26/1 382/27/1 383/28/1 384/29/1
f 385/5/1 386/6/1 387/7/1 388/8/1
f 389/20/1 390/18/1 391/10/1 392/9/1
f 393/20/1 394/18/1 395/10/1 396/9/1
f 397/24/1 398/22/1 399/18/1 400/20/1
f 401/24/1 402/22/1 403/18/1 404/20/1
f 405/5/1 406/6/1 407/7/1 408/8/1
f 409/9/1 410/10/1 411/11/1 412/12/1
f 413/18/1 414/5/1 415/8/1 416/10/1
f 417/13/1 418/9/1 419/12/1 420/14/1
f 421/36/1 422/37/1 423/27/1 424/26/1
f 425/8/1 426/7/1 427/21/1 428/17/1
f 429/18/1 430/5/1 431/8/1 432/10/1
f 433/9/1 434/10/1 435/11/1 436/12/1
f 437/13/1 438/9/1 439/12/1 440/14/1
f 441/38/1 442/39/1 443/40/1 444/41/1
f 445/42/1 446/38/1 447/41/1 448/43/1
f 449/9/1 450/10/1 451/11/1 452/12/1
f 453/19/1 454/20/1 455/9/1 456/13/1
f 457/25/1 458/24/1 459/20/1 460/19/1
f 461/44/1 462/45/1 463/22/1 464/24/1
f 465/5/1 466/6/1 467/7/1 468/8/1
f 469/20/1 470/18/1 471/10/1 472/9/1
f 473/9/1 474/10/1 475/11/1 476/12/1
f 477/13/1 478/9/1 479/12/1 480/14/1
f 481/46/1 482/47/1 483/39/1 484/38/1
f 485/48/1 486/46/1 487/38/1 488/42/1
f 489/10/1 490/8/1 491/17/1 492/11/1
f 493/20/1 494/18/1 495/10/1 496/9/1
f 497/9/1 498/10/1 499/11/1 500/12/1
f 501/20/1 502/18/1 503/10/1 504/9/1
f 505/9/1 506/10/1 507/11/1 508/12/1
f 509/19/1 510/20/1 511/9/1 512/13/1
f 513/23/1 514/49/1 515/6/1 516/5/1
f 517/22/1 518/23/1 519/5/1 520/18/1
f 521/25/1 522/24/1 523/20/1 524/19/1
f 525/5/1 526/6/1 527/7/1 528/8/1
f 529/20/1 530/18/1 531/10/1 532/9/1
f 533/10/1 534/8/1 535/17/1 536/11/1
f 537/18/1 538/5/1 539/8/1 540/10/1
f 541/10/1 542/8/1 543/17/1 544/11/1
f 545/10/1 546/8/1 547/17/1 548/11/1
f 549/9/1 550/10/1 551/11/1 552/12/1
f 553/19/1 554/20/1 555/9/1 556/13/1
f 557/8/1 558/7/1 559/21/1 560/17/1
f 561/20/1 562/18/1 563/10/1 564/9/1
f 565/10/1 566/8/1 567/17/1 568/11/1
f 569/18/1 570/5/1 571/8/1 572/10/1
f 573/9/1 574/10/1 575/11/1 576/12/1
f 577/10/1 578/8/1 579/17/1 580/11/1
f 581/18/1 582/5/1 583/8/1 584/10/1
f 585/13/1 586/9/1 587/12/1 588/14/1
f 589/8/1 590/7/1 591/21/1 592/17/1
f 593/50/1 594/51/1 595/52/1 596/53/1
f 597/54/1 598/50/1 599/53/1 600/55/1
f 601/9/1 602/10/1 603/11/1 604/12/1
f 605/18/1 606/5/1 607/8/1 608/10/1
f 609/18/1 610/5/1 611/8/1 612/10/1
f 613/9/1 614/10/1 615/11/1 616/12/1
f 617/10/1 618/8/1 619/17/1 620/11/1
f 621/10/1 622/8/1 623/17/1 624/11/1
f 625/13/1 626/9/1 627/12/1 628/14/1
f 629/5/1 630/6/1 631/7/1 632/8/1
f 633/56/1 634/57/1 635/51/1 636/50/1
f 637/58/1 638/56/1 639/50/1 640/54/1
f 641/20/1 642/18/1 643/10/1 644/9/1
f 645/20/1 646/18/1 647/10/1 648/9/1
f 649/18/1 650/5/1 651/8/1 652/10/1
f 653/10/1 654/8/1 655/17/1 656/11/1
f 657/18/1 658/5/1 659/8/1 660/10/1
f 661/59/1 662/60/1 663/45/1 664/44/1
f 665/25/1 666/24/1 667/20/1 668/19/1
f 669/8/1 670/7/1 671/21/1 672/17/1
f 673/20/1 674/18/1 675/10/1 676/9/1
f 677/9/1 678/10/1 679/11/1 680/12/1
f 681/20/1 682/18/1 683/10/1 684/9/1
f 685/9/1 686/10/1 687/11/1 688/12/1
f 689/20/1 690/18/1 691/10/1 692/9/1
f 693/22/1 694/23/1 695/5/1 696/18/1
f 697/24/1 698/22/1 699/18/1 700/20/1
f 701/24/1 702/22/1 703/18/1 704/20/1
f 705/8/1 706/7/1 707/21/1 708/17/1
f 709/18/1 710/5/1 711/8/1 712/10/1
f 713/18/1 714/5/1 715/8/1 716/10/1
f 717/9/1 718/10/1 719/11/1 720/12/1
f 721/20/1 722/18/1 723/10/1 724/9/1
f 725/9/1 726/10/1 727/11/1 728/12/1
f 729/19/1 730/20/1 731/9/1 732/13/1
f 733/8/1 734/7/1 735/21/1 736/17/1
f 737/18/1 738/5/1 739/8/1 740/10/1
f 741/18/1 742/5/1 743/8/1 744/10/1
f 745/18/1 746/5/1 747/8/1 748/10/1
f 749/8/1 750/7/1 751/21/1 752/17/1
f 753/18/1 754/5/1 755/8/1 756/10/1
f 757/13/1 758/9/1 759/12/1 760/14/1
f 761/8/1 762/7/1 763/21/1 764/17/1
f 765/20/1 766/18/1 767/10/1 768/9/1
f 769/13/1 770/9/1 771/12/1 772/14/1
f 773/10/1 774/8/1 775/17/1 776/11/1
f 777/9/1 778/10/1 779/11/1 780/12/1
f 781/18/1 782/5/1 783/8/1 784/10/1
f 785/19/1 786/20/1 787/9/1 788/13/1
f 789/8/1 790/7/1 791/21/1 792/17/1
f 793/18/1 794/5/1 795/8/1 796/10/1
f 797/20/1 798/18/1 799/10/1 800/9/1
f 801/22/1 802/23/1 803/5/1 804/18/1
f 805/22/1 806/23/1 807/5/1 808/18/1
f 809/24/1 810/22/1 811/18/1 812/20/1
f 813/25/1 814/24/1 815/20/1 816/19/1
f 817/27/1 818/26/1 819/36/1 820/37/1
f 821/5/1 822/6/1 823/7/1 824/8/1
f 825/10/1 826/8/1 827/17/1 828/11/1
f 829/20/1 830/18/1 831/10/1 832/9/1
f 833/10/1 834/8/1 835/17/1 836/11/1
f 837/19/1 838/20/1 839/9/1 840/13/1
f 841/28/1 842/29/1 843/26/1 844/27/1
f 845/5/1 846/6/1 847/7/1 848/8/1
f 849/18/1 850/5/1 851/8/1 852/10/1
f 853/9/1 854/10/1 855/11/1 856/12/1
f 857/13/1 858/9/1 859/12/1 860/14/1
f 861/34/1 862/35/1 863/29/1 864/28/1
f 865/34/1 866/28/1 867/61/1 868/62/1
f 869/34/1 870/28/1 871/61/1 872/62/1
f 873/27/1 874/37/1 875/63/1 876/64/1
f 877/27/1 878/37/1 879/63/1 880/64/1
f 881/27/1 882/37/1 883/63/1 884/64/1
f 885/27/1 886/37/1 887/63/1 888/64/1
f 889/27/1 890/37/1 891/63/1 892/64/1
f 893/27/1 894/37/1 895/63/1 896/64/1
f 897/27/1 898/37/1 899/63/1 900/64/1
f 901/27/1 902/37/1 903/63/1 904/64/1
f 905/27/1 906/37/1 907/63/1 908/64/1
f 909/27/1 910/37/1 911/63/1 912/64/1
f 913/27/1 914/37/1 915/63/1 916/64/1
f 917/27/1 918/37/1 919/63/1 920/64/1
f 921/28/1 922/27/1 923/64/1 924/61/1
f 925/34/1 926/28/1 927/61/1 928/62/1
f 929/27/1 930/37/1 931/63/1 932/64/1
f 933/27/1 934/37/1 935/63/1 936/64/1
f 937/28/1 938/27/1 939/64/1 940/61/1
f 941/27/1 942/37/1 943/63/1 944/64/1
f 945/27/1 946/37/1 947/63/1 948/64/1
f 949/27/1 950/37/1 951/63/1 952/64/1
f 953/27/1 954/37/1 955/63/1 956/64/1
f 957/28/1 958/27/1 959/64/1 960/61/1
f 961/34/1 962/35/1 963/29/1 964/28/1
f 965/35/1 966/29/1 967/28/1 968/34/1
f 969/35/1 970/29/1 971/28/1 972/34/1
f 973/26/1 974/36/1 975/37/1 976/27/1
f 977/26/1 978/36/1 979/37/1 980/27/1
f 981/26/1 982/36/1 983/37/1 984/27/1
f 985/26/1 986/36/1 987/37/1 988/27/1
f 989/26/1 990/36/1 991/37/1 992/27/1
f 993/26/1 994/36/1 995/37/1 996/27/1
f 997/26/1 998/36/1 999/37/1 1000/27/1
f 1001/26/1 1002/36/1 1003/37/1 1004/27/1
f 1005/26/1 1006/36/1 1007/37/1 1008/27/1
f 1009/26/1 1010/36/1 1011/37/1 1012/27/1
f 1013/26/1 1014/36/1 1015/37/1 1016/27/1
f 1017/26/1 1018/36/1 1019/37/1 1020/27/1
f 1021/29/1 1022/26/1 1023/27/1 1024/28/1
f 1025/35/1 1026/29/1 1027/28/1 1028/34/1
f 1029/26/1 1030/36/1 1031/37/1 1032/27/1
f 1033/26/1 1034/36/1 1035/37/1 1036/27/1
f 1037/29/1 1038/26/1 1039/27/1 1040/28/1
f 1041/26/1 1042/36/1 1043/37/1 1044/27/1
f 1045/26/1 1046/36/1 1047/37/1 1048/27/1
f 1049/26/1 1050/36/1 1051/37/1 1052/27/1
f 1053/26/1 1054/36/1 1055/37/1 1056/27/1
f 1057/29/1 1058/26/1 1059/27/1 1060/28/1
f 1061/34/1 1062/35/1 1063/29/1 1064/28/1

